; NON-PLATED HOLES START AT T1
; THROUGH (PLATED) HOLES START AT T100
M48
INCH
T100C0.040278
T101C0.035000
T102C0.038000
T103C0.025000
%
T100
X014434Y021624
X011034Y002624
X015434Y021624
X023034Y021624
X008434Y021624
X013434Y021624
X023034Y002624
X011434Y021624
X020034Y021624
X022034Y021624
X020034Y002624
X013034Y002624
X022034Y002624
X012034Y002624
X025034Y021624
X018034Y021624
X018034Y002624
X014034Y002624
X019034Y021624
X024034Y002624
X016034Y002624
X025034Y002624
X009434Y021624
X017034Y002624
X024034Y021624
X016434Y021624
X007434Y021624
X010434Y021624
X021034Y002624
X015034Y002624
X021034Y021624
X012434Y021624
T101
X029029Y016397
X004034Y005624
X029029Y005853
X026469Y014625
X029029Y017625
X009034Y005624
X039969Y012125
X003534Y009624
X037529Y017625
X039969Y010353
X012896Y013124
X026529Y008625
X034529Y017625
X041034Y001624
X031973Y010353
X032029Y008625
X032029Y017625
X034532Y010353
X029029Y008625
X004534Y023124
X020034Y005624
X030034Y001624
X023529Y013125
X034532Y012125
X014396Y018124
X039969Y005853
X026529Y017625
X026469Y012125
X034532Y014625
X039969Y007625
X029029Y014625
X012896Y017624
X016896Y008624
X018396Y017624
X013534Y022624
X037410Y005853
X016896Y017624
X023529Y017625
X022396Y017624
X007034Y005624
X029029Y007625
X002534Y008124
X016896Y013124
X009034Y009624
X002534Y007124
X002534Y010624
X026469Y010353
X037410Y007625
X006034Y023124
X022396Y008624
X011322Y008624
X026469Y005853
X034532Y005853
X035534Y001624
X008534Y020624
X026469Y007625
X002534Y009124
X031973Y014625
X029029Y012125
X012896Y008624
X003034Y023124
X041034Y005624
X008896Y018124
X026469Y016397
X006534Y012624
X040029Y016397
X035534Y005624
X026529Y013125
X032029Y013125
X037529Y013125
X031973Y007625
X007396Y017624
X022396Y013124
X019896Y018124
X029029Y013125
X002534Y005624
X034529Y013125
X034529Y008625
X037529Y008625
X003534Y012624
X006034Y019124
X031973Y012125
X014034Y020624
X029029Y010353
X007322Y008624
X002534Y012624
X011322Y013124
X018396Y013124
X037469Y014625
X031973Y016397
X037410Y012125
X002534Y011624
X023529Y008625
X018396Y008624
X003034Y019124
X008034Y022624
X031973Y005853
X030034Y005624
X011396Y017624
X037410Y010353
X002534Y004624
X014534Y005624
X002534Y003624
X034532Y007625
X007322Y013124
X037469Y016397
X040029Y014625
X034532Y016397
X004534Y019124
T102
X021034Y001624
X011534Y023124
X002534Y014124
X022034Y001624
X015034Y001624
X016034Y001624
X020034Y001624
T103
X012896Y011124
X018396Y006624
X014470Y011124
X019970Y006624
X019970Y011124
X014470Y006624
X014470Y015624
X013682Y015624
X008108Y015624
X013682Y011124
X019182Y006624
X008896Y006624
X017608Y015624
X008108Y006624
X013682Y006624
X012896Y006624
X007322Y015624
X008108Y011124
X012896Y015624
X012108Y011124
X012108Y015624
X018396Y011124
X008896Y011124
X017608Y006624
X018396Y015624
X019182Y011124
X006534Y015624
X008896Y015624
X006534Y006624
X006534Y011124
X012108Y006624
X007322Y011124
X019970Y015624
X019182Y015624
X017608Y011124
X007322Y006624
T00
M30
