<?xml version='1.0' encoding='UTF-8' standalone='no'?>
<!-- Created with Fritzing (http://www.fritzing.org/) -->
<svg xmlns="http://www.w3.org/2000/svg" x="0in" viewBox="0 0 311.258 173.584" height="2.41089in" xmlns:svg="http://www.w3.org/2000/svg"  baseProfile="tiny" width="4.32303in" version="1.2" y="0in">
 <g partID="854906281">
  <g id="silkscreen0">
   <rect fill="none" x="0.288" height="173.008" stroke="black" stroke-width="0.576" width="310.683" y="0.288"/>
  </g>
 </g>
 <g partID="854906280">
  <g id="board">
   <rect fill="none" x="0.288" height="173.008" stroke="black" id="boardoutline" fill-opacity="0.5" stroke-width="0.5" width="310.683" y="0.288"/>
  </g>
 </g>
 <g partID="854906281">
  <g id="silkscreen0">
   <rect fill="none" x="0.288" height="173.008" stroke="black" stroke-width="0.576" width="310.683" y="0.288"/>
  </g>
 </g>
 <g partID="854882560">
  <g transform="translate(124.219,83.2721)">
   <g id="copper0">
    <circle fill="white" cy="10.2182" r="1.62" stroke="white" id="connector0pad" cx="2.56464" stroke-width="2.16"/>
    <circle fill="white" cy="10.2182" r="1.62" stroke="white" id="connector1pad" cx="8.23824" stroke-width="2.16"/>
    <circle fill="white" cy="10.2182" r="1.62" stroke="white" id="connector2pad" cx="13.8974" stroke-width="2.16"/>
    <circle fill="white" cy="10.2182" r="1.62" stroke="white" id="connector3pad" cx="19.571" stroke-width="2.16"/>
   </g>
  </g>
 </g>
 <g partID="854882550">
  <g transform="translate(124.219,115.672)">
   <g id="copper0">
    <circle fill="white" cy="10.2182" r="1.62" stroke="white" id="connector0pad" cx="2.56464" stroke-width="2.16"/>
    <circle fill="white" cy="10.2182" r="1.62" stroke="white" id="connector1pad" cx="8.23824" stroke-width="2.16"/>
    <circle fill="white" cy="10.2182" r="1.62" stroke="white" id="connector2pad" cx="13.8974" stroke-width="2.16"/>
    <circle fill="white" cy="10.2182" r="1.62" stroke="white" id="connector3pad" cx="19.571" stroke-width="2.16"/>
   </g>
  </g>
 </g>
 <g partID="854882540">
  <g transform="translate(124.219,50.8726)">
   <g id="copper0">
    <circle fill="white" cy="10.2182" r="1.62" stroke="white" id="connector0pad" cx="2.56464" stroke-width="2.16"/>
    <circle fill="white" cy="10.2182" r="1.62" stroke="white" id="connector1pad" cx="8.23824" stroke-width="2.16"/>
    <circle fill="white" cy="10.2182" r="1.62" stroke="white" id="connector2pad" cx="13.8974" stroke-width="2.16"/>
    <circle fill="white" cy="10.2182" r="1.62" stroke="white" id="connector3pad" cx="19.571" stroke-width="2.16"/>
   </g>
  </g>
 </g>
 <g partID="854882480">
  <g transform="translate(84.6194,83.2721)">
   <g id="copper0">
    <circle fill="white" cy="10.2182" r="1.62" stroke="white" id="connector0pad" cx="2.56464" stroke-width="2.16"/>
    <circle fill="white" cy="10.2182" r="1.62" stroke="white" id="connector1pad" cx="8.23824" stroke-width="2.16"/>
    <circle fill="white" cy="10.2182" r="1.62" stroke="white" id="connector2pad" cx="13.8974" stroke-width="2.16"/>
    <circle fill="white" cy="10.2182" r="1.62" stroke="white" id="connector3pad" cx="19.571" stroke-width="2.16"/>
   </g>
  </g>
 </g>
 <g partID="854882470">
  <g transform="translate(84.6194,115.672)">
   <g id="copper0">
    <circle fill="white" cy="10.2182" r="1.62" stroke="white" id="connector0pad" cx="2.56464" stroke-width="2.16"/>
    <circle fill="white" cy="10.2182" r="1.62" stroke="white" id="connector1pad" cx="8.23824" stroke-width="2.16"/>
    <circle fill="white" cy="10.2182" r="1.62" stroke="white" id="connector2pad" cx="13.8974" stroke-width="2.16"/>
    <circle fill="white" cy="10.2182" r="1.62" stroke="white" id="connector3pad" cx="19.571" stroke-width="2.16"/>
   </g>
  </g>
 </g>
 <g partID="854882460">
  <g transform="translate(84.6194,50.8724)">
   <g id="copper0">
    <circle fill="white" cy="10.2182" r="1.62" stroke="white" id="connector0pad" cx="2.56464" stroke-width="2.16"/>
    <circle fill="white" cy="10.2182" r="1.62" stroke="white" id="connector1pad" cx="8.23824" stroke-width="2.16"/>
    <circle fill="white" cy="10.2182" r="1.62" stroke="white" id="connector2pad" cx="13.8974" stroke-width="2.16"/>
    <circle fill="white" cy="10.2182" r="1.62" stroke="white" id="connector3pad" cx="19.571" stroke-width="2.16"/>
   </g>
  </g>
 </g>
 <g partID="854873190">
  <g transform="translate(44.4866,115.672)">
   <g id="copper0">
    <circle fill="white" cy="10.2182" r="1.62" stroke="white" id="connector0pad" cx="2.56464" stroke-width="2.16"/>
    <circle fill="white" cy="10.2182" r="1.62" stroke="white" id="connector1pad" cx="8.23824" stroke-width="2.16"/>
    <circle fill="white" cy="10.2182" r="1.62" stroke="white" id="connector2pad" cx="13.8974" stroke-width="2.16"/>
    <circle fill="white" cy="10.2182" r="1.62" stroke="white" id="connector3pad" cx="19.571" stroke-width="2.16"/>
   </g>
  </g>
 </g>
 <g partID="854873170">
  <g transform="translate(44.4866,83.2721)">
   <g id="copper0">
    <circle fill="white" cy="10.2182" r="1.62" stroke="white" id="connector0pad" cx="2.56464" stroke-width="2.16"/>
    <circle fill="white" cy="10.2182" r="1.62" stroke="white" id="connector1pad" cx="8.23824" stroke-width="2.16"/>
    <circle fill="white" cy="10.2182" r="1.62" stroke="white" id="connector2pad" cx="13.8974" stroke-width="2.16"/>
    <circle fill="white" cy="10.2182" r="1.62" stroke="white" id="connector3pad" cx="19.571" stroke-width="2.16"/>
   </g>
  </g>
 </g>
 <g partID="854873070">
  <g transform="translate(44.4866,50.8724)">
   <g id="copper0">
    <circle fill="white" cy="10.2182" r="1.62" stroke="white" id="connector0pad" cx="2.56464" stroke-width="2.16"/>
    <circle fill="white" cy="10.2182" r="1.62" stroke="white" id="connector1pad" cx="8.23824" stroke-width="2.16"/>
    <circle fill="white" cy="10.2182" r="1.62" stroke="white" id="connector2pad" cx="13.8974" stroke-width="2.16"/>
    <circle fill="white" cy="10.2182" r="1.62" stroke="white" id="connector3pad" cx="19.571" stroke-width="2.16"/>
   </g>
  </g>
 </g>
 <g partID="854914570">
  <g transform="translate(188.163,52.6774)">
   <g id="copper0">
    <circle fill="white" cy="15.6024" r="1.98" stroke="white" id="connector0pad" cx="20.8462" stroke-width="2.16"/>
    <circle fill="white" cy="15.6024" r="1.98" stroke="white" id="connector1pad" cx="2.42064" stroke-width="2.16"/>
    <circle fill="white" cy="2.84616" r="1.98" stroke="white" id="connector2pad" cx="20.8462" stroke-width="2.16"/>
    <circle fill="white" cy="2.84616" r="1.98" stroke="white" id="connector3pad" cx="2.42064" stroke-width="2.16"/>
   </g>
  </g>
 </g>
 <g partID="854914580">
  <g transform="translate(188.163,115.834)">
   <g id="copper0">
    <circle fill="white" cy="15.6024" r="1.98" stroke="white" id="connector0pad" cx="20.8462" stroke-width="2.16"/>
    <circle fill="white" cy="15.6024" r="1.98" stroke="white" id="connector1pad" cx="2.42064" stroke-width="2.16"/>
    <circle fill="white" cy="2.84616" r="1.98" stroke="white" id="connector2pad" cx="20.8462" stroke-width="2.16"/>
    <circle fill="white" cy="2.84616" r="1.98" stroke="white" id="connector3pad" cx="2.42064" stroke-width="2.16"/>
   </g>
  </g>
 </g>
 <g partID="854914590">
  <g transform="translate(188.163,83.4336)">
   <g id="copper0">
    <circle fill="white" cy="15.6024" r="1.98" stroke="white" id="connector0pad" cx="20.8462" stroke-width="2.16"/>
    <circle fill="white" cy="15.6024" r="1.98" stroke="white" id="connector1pad" cx="2.42064" stroke-width="2.16"/>
    <circle fill="white" cy="2.84616" r="1.98" stroke="white" id="connector2pad" cx="20.8462" stroke-width="2.16"/>
    <circle fill="white" cy="2.84616" r="1.98" stroke="white" id="connector3pad" cx="2.42064" stroke-width="2.16"/>
   </g>
  </g>
 </g>
 <g partID="854914600">
  <g transform="translate(227.787,115.834)">
   <g id="copper0">
    <circle fill="white" cy="15.6024" r="1.98" stroke="white" id="connector0pad" cx="20.8462" stroke-width="2.16"/>
    <circle fill="white" cy="15.6024" r="1.98" stroke="white" id="connector1pad" cx="2.42064" stroke-width="2.16"/>
    <circle fill="white" cy="2.84616" r="1.98" stroke="white" id="connector2pad" cx="20.8462" stroke-width="2.16"/>
    <circle fill="white" cy="2.84616" r="1.98" stroke="white" id="connector3pad" cx="2.42064" stroke-width="2.16"/>
   </g>
  </g>
 </g>
 <g partID="854914610">
  <g transform="translate(227.787,52.6774)">
   <g id="copper0">
    <circle fill="white" cy="15.6024" r="1.98" stroke="white" id="connector0pad" cx="20.8462" stroke-width="2.16"/>
    <circle fill="white" cy="15.6024" r="1.98" stroke="white" id="connector1pad" cx="2.42064" stroke-width="2.16"/>
    <circle fill="white" cy="2.84616" r="1.98" stroke="white" id="connector2pad" cx="20.8462" stroke-width="2.16"/>
    <circle fill="white" cy="2.84616" r="1.98" stroke="white" id="connector3pad" cx="2.42064" stroke-width="2.16"/>
   </g>
  </g>
 </g>
 <g partID="854914620">
  <g transform="translate(266.937,115.834)">
   <g id="copper0">
    <circle fill="white" cy="15.6024" r="1.98" stroke="white" id="connector0pad" cx="20.8462" stroke-width="2.16"/>
    <circle fill="white" cy="15.6024" r="1.98" stroke="white" id="connector1pad" cx="2.42064" stroke-width="2.16"/>
    <circle fill="white" cy="2.84616" r="1.98" stroke="white" id="connector2pad" cx="20.8462" stroke-width="2.16"/>
    <circle fill="white" cy="2.84616" r="1.98" stroke="white" id="connector3pad" cx="2.42064" stroke-width="2.16"/>
   </g>
  </g>
 </g>
 <g partID="854914630">
  <g transform="translate(267.363,52.6774)">
   <g id="copper0">
    <circle fill="white" cy="15.6024" r="1.98" stroke="white" id="connector0pad" cx="20.8462" stroke-width="2.16"/>
    <circle fill="white" cy="15.6024" r="1.98" stroke="white" id="connector1pad" cx="2.42064" stroke-width="2.16"/>
    <circle fill="white" cy="2.84616" r="1.98" stroke="white" id="connector2pad" cx="20.8462" stroke-width="2.16"/>
    <circle fill="white" cy="2.84616" r="1.98" stroke="white" id="connector3pad" cx="2.42064" stroke-width="2.16"/>
   </g>
  </g>
 </g>
 <g partID="854914640">
  <g transform="translate(227.787,83.4336)">
   <g id="copper0">
    <circle fill="white" cy="15.6024" r="1.98" stroke="white" id="connector0pad" cx="20.8462" stroke-width="2.16"/>
    <circle fill="white" cy="15.6024" r="1.98" stroke="white" id="connector1pad" cx="2.42064" stroke-width="2.16"/>
    <circle fill="white" cy="2.84616" r="1.98" stroke="white" id="connector2pad" cx="20.8462" stroke-width="2.16"/>
    <circle fill="white" cy="2.84616" r="1.98" stroke="white" id="connector3pad" cx="2.42064" stroke-width="2.16"/>
   </g>
  </g>
 </g>
 <g partID="854914650">
  <g transform="translate(266.937,83.4336)">
   <g id="copper0">
    <circle fill="white" cy="15.6024" r="1.98" stroke="white" id="connector0pad" cx="20.8462" stroke-width="2.16"/>
    <circle fill="white" cy="15.6024" r="1.98" stroke="white" id="connector1pad" cx="2.42064" stroke-width="2.16"/>
    <circle fill="white" cy="2.84616" r="1.98" stroke="white" id="connector2pad" cx="20.8462" stroke-width="2.16"/>
    <circle fill="white" cy="2.84616" r="1.98" stroke="white" id="connector3pad" cx="2.42064" stroke-width="2.16"/>
   </g>
  </g>
 </g>
 <g partID="854914660">
  <g transform="translate(213.155,164.59)">
   <g transform="matrix(0,-1,1,0,0,0)">
    <g id="copper0">
     <g id="copper1">
      <!-- <rect width="55" x="10" y="15.5" fill="none" height="55" stroke="rgb(255, 191, 0)" stroke-width="20" />  -->
      <circle fill="white" cy="3.096" stroke="white" r="1.98" id="connector0pin" cx="2.7" stroke-width="2.16"/>
      <circle fill="white" cy="3.096" stroke="white" r="1.98" id="connector1pin" cx="31.5" stroke-width="2.16"/>
     </g>
    </g>
   </g>
  </g>
 </g>
 <g partID="854914670">
  <g transform="translate(252.755,164.59)">
   <g transform="matrix(0,-1,1,0,0,0)">
    <g id="copper0">
     <g id="copper1">
      <!-- <rect width="55" x="10" y="15.5" fill="none" height="55" stroke="rgb(255, 191, 0)" stroke-width="20" />  -->
      <circle fill="white" cy="3.096" stroke="white" r="1.98" id="connector0pin" cx="2.7" stroke-width="2.16"/>
      <circle fill="white" cy="3.096" stroke="white" r="1.98" id="connector1pin" cx="31.5" stroke-width="2.16"/>
     </g>
    </g>
   </g>
  </g>
 </g>
 <g partID="854914680">
  <g transform="translate(292.355,164.59)">
   <g transform="matrix(0,-1,1,0,0,0)">
    <g id="copper0">
     <g id="copper1">
      <!-- <rect width="55" x="10" y="15.5" fill="none" height="55" stroke="rgb(255, 191, 0)" stroke-width="20" />  -->
      <circle fill="white" cy="3.096" stroke="white" r="1.98" id="connector0pin" cx="2.7" stroke-width="2.16"/>
      <circle fill="white" cy="3.096" stroke="white" r="1.98" id="connector1pin" cx="31.5" stroke-width="2.16"/>
     </g>
    </g>
   </g>
  </g>
 </g>
 <g partID="854914690">
  <g transform="translate(166.709,76.3797)">
   <g transform="matrix(1,0,0,1,0,0)">
    <g id="copper0">
     <g id="copper1">
      <!-- <rect width="55" x="10" y="10" fill="none" height="55" stroke="rgb(255, 191, 0)" stroke-width="20" /> -->
      <circle fill="white" cy="2.7" stroke="white" r="1.98" id="connector0pin" cx="2.7" stroke-width="2.16"/>
      <circle fill="white" cy="2.7" stroke="white" r="1.98" id="connector1pin" cx="24.3" stroke-width="2.16"/>
     </g>
    </g>
   </g>
  </g>
 </g>
 <g partID="854914700">
  <g transform="translate(245.909,76.3797)">
   <g transform="matrix(1,0,0,1,0,0)">
    <g id="copper0">
     <g id="copper1">
      <!-- <rect width="55" x="10" y="10" fill="none" height="55" stroke="rgb(255, 191, 0)" stroke-width="20" /> -->
      <circle fill="white" cy="2.7" stroke="white" r="1.98" id="connector0pin" cx="2.7" stroke-width="2.16"/>
      <circle fill="white" cy="2.7" stroke="white" r="1.98" id="connector1pin" cx="24.3" stroke-width="2.16"/>
     </g>
    </g>
   </g>
  </g>
 </g>
 <g partID="854914710">
  <g transform="translate(193.709,49.3797)">
   <g transform="matrix(-1,0,0,-1,0,0)">
    <g id="copper0">
     <g id="copper1">
      <!-- <rect width="55" x="10" y="10" fill="none" height="55" stroke="rgb(255, 191, 0)" stroke-width="20" /> -->
      <circle fill="white" cy="2.7" stroke="white" r="1.98" id="connector0pin" cx="2.7" stroke-width="2.16"/>
      <circle fill="white" cy="2.7" stroke="white" r="1.98" id="connector1pin" cx="24.3" stroke-width="2.16"/>
     </g>
    </g>
   </g>
  </g>
 </g>
 <g partID="854914720">
  <g transform="translate(245.909,108.78)">
   <g transform="matrix(1,0,0,1,0,0)">
    <g id="copper0">
     <g id="copper1">
      <!-- <rect width="55" x="10" y="10" fill="none" height="55" stroke="rgb(255, 191, 0)" stroke-width="20" /> -->
      <circle fill="white" cy="2.7" stroke="white" r="1.98" id="connector0pin" cx="2.7" stroke-width="2.16"/>
      <circle fill="white" cy="2.7" stroke="white" r="1.98" id="connector1pin" cx="24.3" stroke-width="2.16"/>
     </g>
    </g>
   </g>
  </g>
 </g>
 <g partID="854914730">
  <g transform="translate(206.309,76.3797)">
   <g transform="matrix(1,0,0,1,0,0)">
    <g id="copper0">
     <g id="copper1">
      <!-- <rect width="55" x="10" y="10" fill="none" height="55" stroke="rgb(255, 191, 0)" stroke-width="20" /> -->
      <circle fill="white" cy="2.7" stroke="white" r="1.98" id="connector0pin" cx="2.7" stroke-width="2.16"/>
      <circle fill="white" cy="2.7" stroke="white" r="1.98" id="connector1pin" cx="24.3" stroke-width="2.16"/>
     </g>
    </g>
   </g>
  </g>
 </g>
 <g partID="854914740">
  <g transform="translate(233.309,49.3797)">
   <g transform="matrix(-1,0,0,-1,0,0)">
    <g id="copper0">
     <g id="copper1">
      <!-- <rect width="55" x="10" y="10" fill="none" height="55" stroke="rgb(255, 191, 0)" stroke-width="20" /> -->
      <circle fill="white" cy="2.7" stroke="white" r="1.98" id="connector0pin" cx="2.7" stroke-width="2.16"/>
      <circle fill="white" cy="2.7" stroke="white" r="1.98" id="connector1pin" cx="24.3" stroke-width="2.16"/>
     </g>
    </g>
   </g>
  </g>
 </g>
 <g partID="854914750">
  <g transform="translate(272.909,49.3797)">
   <g transform="matrix(-1,0,0,-1,0,0)">
    <g id="copper0">
     <g id="copper1">
      <!-- <rect width="55" x="10" y="10" fill="none" height="55" stroke="rgb(255, 191, 0)" stroke-width="20" /> -->
      <circle fill="white" cy="2.7" stroke="white" r="1.98" id="connector0pin" cx="2.7" stroke-width="2.16"/>
      <circle fill="white" cy="2.7" stroke="white" r="1.98" id="connector1pin" cx="24.3" stroke-width="2.16"/>
     </g>
    </g>
   </g>
  </g>
 </g>
 <g partID="854914760">
  <g transform="translate(166.709,108.78)">
   <g transform="matrix(1,0,0,1,0,0)">
    <g id="copper0">
     <g id="copper1">
      <!-- <rect width="55" x="10" y="10" fill="none" height="55" stroke="rgb(255, 191, 0)" stroke-width="20" /> -->
      <circle fill="white" cy="2.7" stroke="white" r="1.98" id="connector0pin" cx="2.7" stroke-width="2.16"/>
      <circle fill="white" cy="2.7" stroke="white" r="1.98" id="connector1pin" cx="24.3" stroke-width="2.16"/>
     </g>
    </g>
   </g>
  </g>
 </g>
 <g partID="854914770">
  <g transform="translate(206.309,108.78)">
   <g transform="matrix(1,0,0,1,0,0)">
    <g id="copper0">
     <g id="copper1">
      <!-- <rect width="55" x="10" y="10" fill="none" height="55" stroke="rgb(255, 191, 0)" stroke-width="20" /> -->
      <circle fill="white" cy="2.7" stroke="white" r="1.98" id="connector0pin" cx="2.7" stroke-width="2.16"/>
      <circle fill="white" cy="2.7" stroke="white" r="1.98" id="connector1pin" cx="24.3" stroke-width="2.16"/>
     </g>
    </g>
   </g>
  </g>
 </g>
 <g partID="854882690">
  <g transform="translate(163.958,49.7865)">
   <g transform="matrix(-1,0,0,-1,0,0)">
    <g id="copper0">
     <g id="copper1">
      <!-- <rect width="55" x="10" y="15.5" fill="none" height="55" stroke="rgb(255, 191, 0)" stroke-width="20" />  -->
      <circle fill="white" cy="3.096" stroke="white" r="1.98" id="connector0pin" cx="2.7" stroke-width="2.16"/>
      <circle fill="white" cy="3.096" stroke="white" r="1.98" id="connector1pin" cx="31.5" stroke-width="2.16"/>
     </g>
    </g>
   </g>
  </g>
 </g>
 <g partID="854882670">
  <g transform="translate(124.358,49.7865)">
   <g transform="matrix(-1,0,0,-1,0,0)">
    <g id="copper0">
     <g id="copper1">
      <!-- <rect width="55" x="10" y="15.5" fill="none" height="55" stroke="rgb(255, 191, 0)" stroke-width="20" />  -->
      <circle fill="white" cy="3.096" stroke="white" r="1.98" id="connector0pin" cx="2.7" stroke-width="2.16"/>
      <circle fill="white" cy="3.096" stroke="white" r="1.98" id="connector1pin" cx="31.5" stroke-width="2.16"/>
     </g>
    </g>
   </g>
  </g>
 </g>
 <g partID="854882630">
  <g transform="translate(163.958,82.1867)">
   <g transform="matrix(-1,0,0,-1,0,0)">
    <g id="copper0">
     <g id="copper1">
      <!-- <rect width="55" x="10" y="15.5" fill="none" height="55" stroke="rgb(255, 191, 0)" stroke-width="20" />  -->
      <circle fill="white" cy="3.096" stroke="white" r="1.98" id="connector0pin" cx="2.7" stroke-width="2.16"/>
      <circle fill="white" cy="3.096" stroke="white" r="1.98" id="connector1pin" cx="31.5" stroke-width="2.16"/>
     </g>
    </g>
   </g>
  </g>
 </g>
 <g partID="854882610">
  <g transform="translate(124.358,82.1867)">
   <g transform="matrix(-1,0,0,-1,0,0)">
    <g id="copper0">
     <g id="copper1">
      <!-- <rect width="55" x="10" y="15.5" fill="none" height="55" stroke="rgb(255, 191, 0)" stroke-width="20" />  -->
      <circle fill="white" cy="3.096" stroke="white" r="1.98" id="connector0pin" cx="2.7" stroke-width="2.16"/>
      <circle fill="white" cy="3.096" stroke="white" r="1.98" id="connector1pin" cx="31.5" stroke-width="2.16"/>
     </g>
    </g>
   </g>
  </g>
 </g>
 <g partID="854871930">
  <g transform="translate(84.225,82.1867)">
   <g transform="matrix(-1,0,0,-1,0,0)">
    <g id="copper0">
     <g id="copper1">
      <!-- <rect width="55" x="10" y="15.5" fill="none" height="55" stroke="rgb(255, 191, 0)" stroke-width="20" />  -->
      <circle fill="white" cy="3.096" stroke="white" r="1.98" id="connector0pin" cx="2.7" stroke-width="2.16"/>
      <circle fill="white" cy="3.096" stroke="white" r="1.98" id="connector1pin" cx="31.5" stroke-width="2.16"/>
     </g>
    </g>
   </g>
  </g>
 </g>
 <g partID="854871530">
  <g transform="translate(84.7578,49.7865)">
   <g transform="matrix(-1,0,0,-1,0,0)">
    <g id="copper0">
     <g id="copper1">
      <!-- <rect width="55" x="10" y="15.5" fill="none" height="55" stroke="rgb(255, 191, 0)" stroke-width="20" />  -->
      <circle fill="white" cy="3.096" stroke="white" r="1.98" id="connector0pin" cx="2.7" stroke-width="2.16"/>
      <circle fill="white" cy="3.096" stroke="white" r="1.98" id="connector1pin" cx="31.5" stroke-width="2.16"/>
     </g>
    </g>
   </g>
  </g>
 </g>
 <g partID="854882530">
  <g transform="translate(163.958,114.587)">
   <g transform="matrix(-1,0,0,-1,0,0)">
    <g id="copper0">
     <g id="copper1">
      <!-- <rect width="55" x="10" y="15.5" fill="none" height="55" stroke="rgb(255, 191, 0)" stroke-width="20" />  -->
      <circle fill="white" cy="3.096" stroke="white" r="1.98" id="connector0pin" cx="2.7" stroke-width="2.16"/>
      <circle fill="white" cy="3.096" stroke="white" r="1.98" id="connector1pin" cx="31.5" stroke-width="2.16"/>
     </g>
    </g>
   </g>
  </g>
 </g>
 <g partID="854882450">
  <g transform="translate(124.358,114.587)">
   <g transform="matrix(-1,0,0,-1,0,0)">
    <g id="copper0">
     <g id="copper1">
      <!-- <rect width="55" x="10" y="15.5" fill="none" height="55" stroke="rgb(255, 191, 0)" stroke-width="20" />  -->
      <circle fill="white" cy="3.096" stroke="white" r="1.98" id="connector0pin" cx="2.7" stroke-width="2.16"/>
      <circle fill="white" cy="3.096" stroke="white" r="1.98" id="connector1pin" cx="31.5" stroke-width="2.16"/>
     </g>
    </g>
   </g>
  </g>
 </g>
 <g partID="854871510">
  <g transform="translate(84.225,114.587)">
   <g transform="matrix(-1,0,0,-1,0,0)">
    <g id="copper0">
     <g id="copper1">
      <!-- <rect width="55" x="10" y="15.5" fill="none" height="55" stroke="rgb(255, 191, 0)" stroke-width="20" />  -->
      <circle fill="white" cy="3.096" stroke="white" r="1.98" id="connector0pin" cx="2.7" stroke-width="2.16"/>
      <circle fill="white" cy="3.096" stroke="white" r="1.98" id="connector1pin" cx="31.5" stroke-width="2.16"/>
     </g>
    </g>
   </g>
  </g>
 </g>
 <g partID="854817580">
  <g transform="translate(0.065041,10.6903)">
   <g id="copper0">
    <circle fill="white" cy="144" stroke="white" r="1.9" id="connector1pad" cx="151.384" stroke-width="1.62"/>
    <circle fill="white" cy="144" stroke="white" r="1.9" id="connector2pad" cx="158.583" stroke-width="1.62"/>
    <circle fill="white" cy="144" stroke="white" r="1.9" id="connector3pad" cx="165.786" stroke-width="1.62"/>
    <circle fill="white" cy="144" stroke="white" r="1.9" id="connector4pad" cx="172.985" stroke-width="1.62"/>
    <circle fill="white" cy="144" stroke="white" r="1.9" id="connector5pad" cx="180.185" stroke-width="1.62"/>
    <circle fill="white" cy="7.2" stroke="white" r="1.9" id="connector51pad" cx="118.263" stroke-width="1.62"/>
    <circle fill="white" cy="7.2" stroke="white" r="1.9" id="connector52pad" cx="111.065" stroke-width="1.62"/>
    <circle fill="white" cy="7.2" stroke="white" r="1.9" id="connector53pad" cx="103.864" stroke-width="1.62"/>
    <circle fill="white" cy="7.2" stroke="white" r="1.9" id="connector54pad" cx="96.664" stroke-width="1.62"/>
    <circle fill="white" cy="7.2" stroke="white" r="1.9" id="connector55pad" cx="89.464" stroke-width="1.62"/>
    <circle fill="white" cy="7.2" stroke="white" r="1.9" id="connector56pad" cx="82.264" stroke-width="1.62"/>
    <circle fill="white" cy="7.2" stroke="white" r="1.9" id="connector57pad" cx="75.064" stroke-width="1.62"/>
    <circle fill="white" cy="7.2" stroke="white" r="1.9" id="connector58pad" cx="67.864" stroke-width="1.62"/>
    <circle fill="white" cy="7.2" stroke="white" r="1.9" id="connector59pad" cx="60.664" stroke-width="1.62"/>
    <circle fill="white" cy="7.2" stroke="white" r="1.9" id="connector60pad" cx="53.463" stroke-width="1.62"/>
    <circle fill="white" cy="7.2" stroke="white" r="1.9" id="connector61pad" cx="180.185" stroke-width="1.62"/>
    <circle fill="white" cy="7.2" stroke="white" r="1.9" id="connector62pad" cx="172.985" stroke-width="1.62"/>
    <circle fill="white" cy="7.2" stroke="white" r="1.9" id="connector63pad" cx="165.786" stroke-width="1.62"/>
    <circle fill="white" cy="7.2" stroke="white" r="1.9" id="connector64pad" cx="158.583" stroke-width="1.62"/>
    <circle fill="white" cy="7.2" stroke="white" r="1.9" id="connector65pad" cx="151.384" stroke-width="1.62"/>
    <circle fill="white" cy="7.2" stroke="white" r="1.9" id="connector66pad" cx="144.185" stroke-width="1.62"/>
    <circle fill="white" cy="7.2" stroke="white" r="1.9" id="connector67pad" cx="136.985" stroke-width="1.62"/>
    <circle fill="white" cy="7.2" stroke="white" r="1.9" id="connector68pad" cx="129.784" stroke-width="1.62"/>
    <circle fill="white" cy="144" stroke="white" r="1.9" id="connector84pad" cx="86.584" stroke-width="1.62"/>
    <circle fill="white" cy="144" stroke="white" r="1.9" id="connector91pin" cx="79.384" stroke-width="1.62"/>
    <circle fill="white" cy="144" stroke="white" r="1.9" id="connector85pad" cx="93.784" stroke-width="1.62"/>
    <circle fill="white" cy="144" stroke="white" r="1.9" id="connector86pad" cx="100.985" stroke-width="1.62"/>
    <circle fill="white" cy="144" stroke="white" r="1.9" id="connector87pad" cx="108.185" stroke-width="1.62"/>
    <circle fill="white" cy="144" stroke="white" r="1.9" id="connector88pad" cx="115.384" stroke-width="1.62"/>
    <circle fill="white" cy="144" stroke="white" r="1.9" id="connector89pad" cx="122.583" stroke-width="1.62"/>
    <circle fill="white" cy="144" stroke="white" r="1.9" id="connector90pad" cx="129.784" stroke-width="1.62"/>
    <circle fill="white" cy="144" stroke="white" r="1.9" id="connector0pad" cx="144.185" stroke-width="1.62"/>
   </g>
  </g>
 </g>
 <g partID="854897780">
  <g transform="translate(60.2992,128.338)">
   <g id="copper0">
    <circle fill="white" cy="4.752" stroke="white" r="1.98" id="connector0pad" cx="4.752" stroke-width="2.16"/>
    <circle fill="white" cy="4.752" stroke="white" r="1.98" id="connector1pad" cx="44.352" stroke-width="2.16"/>
   </g>
  </g>
 </g>
 <g partID="854900110">
  <g transform="translate(59.3058,38.3385)">
   <g id="copper0">
    <circle fill="white" cy="4.752" stroke="white" r="1.98" id="connector0pad" cx="4.752" stroke-width="2.16"/>
    <circle fill="white" cy="4.752" stroke="white" r="1.98" id="connector1pad" cx="44.352" stroke-width="2.16"/>
   </g>
  </g>
 </g>
 <g partID="854898820">
  <g transform="translate(99.8992,128.338)">
   <g id="copper0">
    <circle fill="white" cy="4.752" stroke="white" r="1.98" id="connector0pad" cx="4.752" stroke-width="2.16"/>
    <circle fill="white" cy="4.752" stroke="white" r="1.98" id="connector1pad" cx="44.352" stroke-width="2.16"/>
   </g>
  </g>
 </g>
 <g partID="854900850">
  <g transform="translate(98.9058,38.3385)">
   <g id="copper0">
    <circle fill="white" cy="4.752" stroke="white" r="1.98" id="connector0pad" cx="4.752" stroke-width="2.16"/>
    <circle fill="white" cy="4.752" stroke="white" r="1.98" id="connector1pad" cx="44.352" stroke-width="2.16"/>
   </g>
  </g>
 </g>
 <g partID="854903040">
  <g transform="translate(26.4592,104.29)">
   <g transform="matrix(0,1,-1,0,0,0)">
    <g id="copper0">
     <circle fill="white" cy="8.208" r="1.98" stroke="white" id="connector0pin" cx="3.6" stroke-width="2.16"/>
     <circle fill="white" cy="8.208" r="1.98" stroke="white" id="connector1pin" cx="10.8" stroke-width="2.16"/>
     <circle fill="white" cy="8.208" r="1.98" stroke="white" id="connector2pin" cx="18" stroke-width="2.16"/>
    </g>
   </g>
  </g>
 </g>
 <g partID="854903070">
  <g transform="translate(26.4592,129.49)">
   <g transform="matrix(0,1,-1,0,0,0)">
    <g id="copper0">
     <circle fill="white" cy="8.208" r="1.98" stroke="white" id="connector0pin" cx="3.6" stroke-width="2.16"/>
     <circle fill="white" cy="8.208" r="1.98" stroke="white" id="connector1pin" cx="10.8" stroke-width="2.16"/>
     <circle fill="white" cy="8.208" r="1.98" stroke="white" id="connector2pin" cx="18" stroke-width="2.16"/>
    </g>
   </g>
  </g>
 </g>
 <g partID="854905730">
  <g transform="translate(26.4592,79.0903)">
   <g transform="matrix(0,1,-1,0,0,0)">
    <g id="copper0">
     <circle fill="white" cy="8.208" r="1.98" stroke="white" id="connector0pin" cx="3.6" stroke-width="2.16"/>
     <circle fill="white" cy="8.208" r="1.98" stroke="white" id="connector1pin" cx="10.8" stroke-width="2.16"/>
     <circle fill="white" cy="8.208" r="1.98" stroke="white" id="connector2pin" cx="18" stroke-width="2.16"/>
    </g>
   </g>
  </g>
 </g>
 <g partID="854903590">
  <g transform="translate(53.0992,5.93835)">
   <g id="copper0">
    <circle fill="white" cy="4.752" stroke="white" r="1.98" id="connector0pad" cx="44.352" stroke-width="2.16"/>
    <circle fill="white" cy="4.752" stroke="white" r="1.98" id="connector1pad" cx="4.752" stroke-width="2.16"/>
   </g>
  </g>
 </g>
 <g partID="854904600">
  <g transform="translate(56.6992,20.3383)">
   <g id="copper0">
    <circle fill="white" cy="4.752" stroke="white" r="1.98" id="connector0pad" cx="44.352" stroke-width="2.16"/>
    <circle fill="white" cy="4.752" stroke="white" r="1.98" id="connector1pad" cx="4.752" stroke-width="2.16"/>
   </g>
  </g>
 </g>
 <g partID="854906110">
  <g transform="translate(20.6992,77.9383)">
   <g id="copper0">
    <circle fill="white" cy="4.752" stroke="white" r="1.98" id="connector0pad" cx="4.752" stroke-width="2.16"/>
    <circle fill="white" cy="4.752" stroke="white" r="1.98" id="connector1pad" cx="26.352" stroke-width="2.16"/>
   </g>
  </g>
 </g>
 <g partID="854909080">
  <g transform="translate(24.2992,128.338)">
   <g id="copper0">
    <circle fill="white" cy="4.752" stroke="white" r="1.98" id="connector0pad" cx="4.752" stroke-width="2.16"/>
    <circle fill="white" cy="4.752" stroke="white" r="1.98" id="connector1pad" cx="26.352" stroke-width="2.16"/>
   </g>
  </g>
 </g>
 <g partID="854910000">
  <g transform="translate(20.6992,99.5383)">
   <g id="copper0">
    <circle fill="white" cy="4.752" stroke="white" r="1.98" id="connector0pad" cx="4.752" stroke-width="2.16"/>
    <circle fill="white" cy="4.752" stroke="white" r="1.98" id="connector1pad" cx="44.352" stroke-width="2.16"/>
   </g>
  </g>
 </g>
 <g partID="854906240">
  <g transform="translate(78.0112,2.05035)">
   <g id="copper0">
    <circle fill="white" cy="5.04" r="2.088" stroke="white" id="connector0pin" cx="5.04" stroke-width="2.16"/>
   </g>
  </g>
 </g>
 <g partID="854929110">
  <g transform="translate(13.2112,66.8503)">
   <g id="copper0">
    <circle fill="white" cy="5.04" r="2.088" stroke="white" id="connector0pin" cx="5.04" stroke-width="2.16"/>
   </g>
  </g>
 </g>
 <g partID="854930310">
  <g transform="translate(139.211,166.93)">
   <g transform="matrix(0,-1,1,0,0,0)">
    <g id="copper0">
     <circle fill="white" cy="5.04" r="2.088" stroke="white" id="connector0pin" cx="5.04" stroke-width="2.16"/>
     <circle fill="white" cy="12.24" r="2.088" stroke="white" id="connector1pin" cx="5.04" stroke-width="2.16"/>
     <circle fill="white" cy="19.44" r="2.088" stroke="white" id="connector2pin" cx="5.04" stroke-width="2.16"/>
    </g>
   </g>
  </g>
 </g>
 <g partID="854930680">
  <g transform="translate(103.211,166.93)">
   <g transform="matrix(0,-1,1,0,0,0)">
    <g id="copper0">
     <circle fill="white" cy="5.04" r="2.088" stroke="white" id="connector0pin" cx="5.04" stroke-width="2.16"/>
     <circle fill="white" cy="12.24" r="2.088" stroke="white" id="connector1pin" cx="5.04" stroke-width="2.16"/>
    </g>
   </g>
  </g>
 </g>
 <g partID="854935240">
  <g transform="translate(46.5472,4.39035)">
   <g transform="matrix(0,1,-1,0,0,0)">
    <g id="copper0">
     <g id="copper1">
      <!-- <rect width="55" x="10" y="15.5" fill="none" height="55" stroke="rgb(255, 191, 0)" stroke-width="20" />  -->
      <circle fill="white" cy="3.096" stroke="white" r="1.98" id="connector0pin" cx="2.7" stroke-width="2.16"/>
      <circle fill="white" cy="3.096" stroke="white" r="1.98" id="connector1pin" cx="31.5" stroke-width="2.16"/>
     </g>
    </g>
   </g>
  </g>
 </g>
 <g partID="854935190">
  <g transform="translate(24.9472,4.39035)">
   <g transform="matrix(0,1,-1,0,0,0)">
    <g id="copper0">
     <g id="copper1">
      <!-- <rect width="55" x="10" y="15.5" fill="none" height="55" stroke="rgb(255, 191, 0)" stroke-width="20" />  -->
      <circle fill="white" cy="3.096" stroke="white" r="1.98" id="connector0pin" cx="2.7" stroke-width="2.16"/>
      <circle fill="white" cy="3.096" stroke="white" r="1.98" id="connector1pin" cx="31.5" stroke-width="2.16"/>
     </g>
    </g>
   </g>
  </g>
 </g>
 <g partID="854941140">
  <g transform="translate(35.7472,4.39035)">
   <g transform="matrix(0,1,-1,0,0,0)">
    <g id="copper0">
     <g id="copper1">
      <!-- <rect width="55" x="10" y="15.5" fill="none" height="55" stroke="rgb(255, 191, 0)" stroke-width="20" />  -->
      <circle fill="white" cy="3.096" stroke="white" r="1.98" id="connector0pin" cx="2.7" stroke-width="2.16"/>
      <circle fill="white" cy="3.096" stroke="white" r="1.98" id="connector1pin" cx="31.5" stroke-width="2.16"/>
     </g>
    </g>
   </g>
  </g>
 </g>
</svg>
